<svg width="121" height="18" viewBox="0 0 121 18" fill="none" xmlns="http://www.w3.org/2000/svg">
<path d="M9.13244 6.49105C9.04134 5.90793 8.75287 5.46292 8.26702 5.15601C7.79635 4.8491 7.17386 4.69565 6.39954 4.69565C6.12625 4.69565 5.85296 4.72634 5.57967 4.78772C5.32156 4.83376 5.08623 4.91816 4.87367 5.04092C4.66111 5.14834 4.48651 5.29412 4.34986 5.47826C4.2284 5.6624 4.16767 5.87724 4.16767 6.12276C4.16767 6.38363 4.22081 6.59847 4.32709 6.76726C4.44855 6.93606 4.61556 7.08184 4.82812 7.2046C5.05586 7.32737 5.32156 7.43478 5.62522 7.52685C5.94406 7.61893 6.30085 7.71867 6.6956 7.82609C7.48511 8.04092 8.25943 8.23274 9.01857 8.40154C9.77771 8.57033 10.4533 8.81586 11.0455 9.13811C11.6528 9.46036 12.1386 9.90537 12.503 10.4731C12.8826 11.0409 13.0876 11.8312 13.1179 12.844C13.1179 13.7494 12.9509 14.532 12.6169 15.1918C12.2829 15.8363 11.8274 16.3657 11.2504 16.7801C10.6887 17.1944 10.0282 17.5013 9.26908 17.7008C8.50994 17.9003 7.71285 18 6.8778 18C6.04274 18 5.23047 17.9079 4.44096 17.7238C3.65146 17.5243 2.93787 17.2097 2.30019 16.7801C1.66251 16.335 1.13871 15.7673 0.728773 15.0767C0.318838 14.3862 0.0759138 13.5422 0 12.5448H3.75774C3.84883 12.9284 4.00066 13.2506 4.21322 13.5115C4.42578 13.757 4.67629 13.9565 4.96477 14.11C5.26842 14.2634 5.60244 14.3785 5.96683 14.4552C6.3464 14.5166 6.73356 14.5473 7.12831 14.5473C7.37124 14.5473 7.62934 14.5243 7.90263 14.4783C8.17592 14.4322 8.41885 14.3555 8.63141 14.2481C8.84397 14.1253 9.01857 13.9719 9.15521 13.7877C9.30704 13.5882 9.38295 13.3504 9.38295 13.0742C9.38295 12.6752 9.23872 12.376 8.95024 12.1765C8.67696 11.9616 8.32775 11.8005 7.90263 11.6931C6.87021 11.4629 5.9061 11.2327 5.01031 11.0026C4.11453 10.7724 3.32503 10.4731 2.6418 10.1049C1.97376 9.73657 1.44236 9.2532 1.04761 8.65473C0.668042 8.05627 0.478257 7.26599 0.478257 6.28389C0.478257 5.30179 0.675633 4.48849 1.07039 3.84399C1.46514 3.19949 1.96617 2.69309 2.57348 2.32481C3.19597 1.94118 3.88679 1.68031 4.64593 1.5422C5.40507 1.38875 6.14902 1.31202 6.8778 1.31202C7.6673 1.34271 8.39607 1.46547 9.06412 1.68031C9.74734 1.8798 10.3471 2.19437 10.8633 2.62404C11.3795 3.05371 11.797 3.59079 12.1159 4.23529C12.4499 4.86445 12.6624 5.61637 12.7535 6.49105H9.13244Z" fill="black"/>
<path d="M21.4314 14.6394C21.7806 14.6394 22.107 14.578 22.4107 14.4552C22.7295 14.3171 22.9648 14.1944 23.1167 14.087L24.0732 16.9412C23.8454 17.1253 23.5797 17.2864 23.2761 17.4246C22.9876 17.5473 22.684 17.6547 22.3651 17.7468C22.0615 17.8235 21.7578 17.8772 21.4541 17.9079C21.1657 17.954 20.9076 17.977 20.6798 17.977C19.2071 17.977 18.1063 17.5933 17.3776 16.8261C16.664 16.0435 16.3072 14.9616 16.3072 13.5806V8.93095H14.508V5.68542H16.3072V2.50895H19.9055V5.68542H23.4583V8.93095H19.9055V12.7289C19.9055 13.2353 20.0042 13.6803 20.2016 14.0639C20.4141 14.4322 20.8241 14.624 21.4314 14.6394Z" fill="black"/>
<path d="M30.9391 14.7315C31.349 14.7315 31.683 14.6624 31.9411 14.5243C32.2144 14.3708 32.4194 14.179 32.556 13.9488C32.7078 13.7187 32.8065 13.4501 32.8521 13.1432C32.9128 12.8363 32.9432 12.5141 32.9432 12.1765V5.68542H36.5187V12.3836C36.5187 13.4118 36.3745 14.2864 36.086 15.0077C35.8127 15.7289 35.4256 16.312 34.9245 16.757C34.4235 17.202 33.8238 17.5243 33.1254 17.7238C32.4422 17.9079 31.7058 18 30.9163 18C30.0509 18 29.2689 17.8926 28.5705 17.6777C27.8721 17.4629 27.28 17.1253 26.7942 16.665C26.3235 16.2046 25.9591 15.6215 25.701 14.9156C25.4581 14.1944 25.3366 13.3504 25.3366 12.3836V5.68542H28.9122V12.1765C28.9122 12.913 29.064 13.5192 29.3676 13.9949C29.6713 14.4706 30.1951 14.7161 30.9391 14.7315Z" fill="black"/>
<path d="M47.6935 17.8159L47.6024 16.5038C47.1318 17.0256 46.6156 17.4015 46.0538 17.6317C45.492 17.8465 44.786 17.9693 43.9358 18C43.04 18 42.2581 17.8465 41.5901 17.5396C40.922 17.2174 40.3527 16.7801 39.882 16.2276C39.4265 15.6598 39.0773 15 38.8344 14.2481C38.6067 13.4808 38.4928 12.6598 38.4928 11.7852C38.4928 10.8644 38.6218 10.0205 38.8799 9.2532C39.1532 8.47059 39.5328 7.7954 40.0186 7.22762C40.5045 6.65985 41.089 6.22251 41.7723 5.9156C42.4707 5.59335 43.2754 5.43222 44.1863 5.43222C44.8544 5.43222 45.4693 5.5243 46.031 5.70844C46.5928 5.89258 47.0862 6.17647 47.5113 6.5601V1.51918H51.1097V17.8159H47.6935ZM44.8012 14.7545C45.2567 14.7391 45.6515 14.6471 45.9855 14.4783C46.3347 14.3095 46.6232 14.0946 46.8509 13.8338C47.0786 13.5575 47.2456 13.243 47.3519 12.89C47.4582 12.5371 47.5113 12.1535 47.5113 11.7391C47.5113 11.3402 47.4582 10.9642 47.3519 10.6113C47.2456 10.2583 47.0786 9.94373 46.8509 9.66752C46.6383 9.3913 46.3575 9.17647 46.0083 9.02302C45.659 8.86957 45.2567 8.79284 44.8012 8.79284C44.3154 8.79284 43.8978 8.87724 43.5486 9.04604C43.2146 9.19949 42.9337 9.42199 42.706 9.71355C42.4934 9.98977 42.334 10.312 42.2277 10.6803C42.1366 11.0332 42.0911 11.4015 42.0911 11.7852C42.0911 12.1995 42.1442 12.5831 42.2505 12.9361C42.3568 13.289 42.5162 13.5959 42.7288 13.8568C42.9565 14.1176 43.2374 14.3325 43.5714 14.5013C43.9206 14.6701 44.3306 14.7545 44.8012 14.7545Z" fill="black"/>
<path d="M59.1626 14.9847C59.6333 14.9847 60.0281 14.9079 60.3469 14.7545C60.6657 14.5857 60.9011 14.3555 61.0529 14.0639H64.6968C64.5298 14.7698 64.2716 15.3683 63.9224 15.8593C63.5732 16.3504 63.1481 16.757 62.6471 17.0793C62.1461 17.4015 61.5919 17.6394 60.9846 17.7928C60.3924 17.9309 59.77 18 59.1171 18C57.2192 18 55.7389 17.4552 54.6761 16.3657C53.6285 15.2609 53.1047 13.7033 53.1047 11.6931C53.1047 10.8031 53.2414 9.97442 53.5146 9.20716C53.8031 8.4399 54.1979 7.78005 54.6989 7.22762C55.2151 6.65985 55.8376 6.22251 56.5664 5.9156C57.3103 5.59335 58.1454 5.43222 59.0715 5.43222C59.9977 5.43222 60.8176 5.578 61.5312 5.86956C62.2447 6.16113 62.8445 6.57545 63.3303 7.11253C63.8162 7.64962 64.1805 8.28645 64.4235 9.02302C64.6816 9.75959 64.8106 10.5575 64.8106 11.4169C64.8106 11.6624 64.7954 11.9003 64.7651 12.1304C64.7499 12.3453 64.7195 12.5831 64.674 12.844H56.703C56.7638 13.4271 56.9839 13.9258 57.3635 14.3402C57.7582 14.7545 58.358 14.9693 59.1626 14.9847ZM61.3717 10.4041C61.3717 9.83632 61.1668 9.36829 60.7568 9C60.3621 8.63171 59.8155 8.44757 59.1171 8.44757C58.3428 8.44757 57.7658 8.64706 57.3863 9.04604C57.0067 9.42967 56.7941 9.88235 56.7486 10.4041H61.3717Z" fill="black"/>
<path d="M70.3682 7.02046C70.8996 6.43734 71.4766 6.03069 72.0991 5.80051C72.7216 5.57033 73.3213 5.44757 73.8982 5.43222C74.6574 5.43222 75.3178 5.56266 75.8796 5.82353C76.4565 6.06905 76.9424 6.41432 77.3371 6.85934C77.7774 7.39642 78.0811 8.02557 78.2481 8.7468C78.4151 9.46803 78.4986 10.266 78.4986 11.1407V17.8159H74.9003V11.4399C74.9003 11.1023 74.8699 10.7724 74.8092 10.4501C74.7485 10.1279 74.6346 9.83632 74.4676 9.57545C74.3006 9.31458 74.0728 9.11509 73.7844 8.97698C73.4959 8.82353 73.1391 8.7468 72.714 8.7468C72.2585 8.76215 71.8789 8.86189 71.5753 9.04604C71.2716 9.23018 71.0363 9.46803 70.8693 9.75959C70.7023 10.0358 70.5808 10.3427 70.5049 10.6803C70.4442 11.0179 70.4138 11.3555 70.4138 11.6931V17.8159H66.8382V5.68542H70.186L70.3682 7.02046Z" fill="black"/>
<path d="M85.3801 8.93095V13.2353C85.3801 13.6343 85.4713 13.9642 85.6534 14.2251C85.8356 14.4706 86.1772 14.5933 86.6783 14.5933H87.817V17.8159H86.5189C84.9095 17.8465 83.7176 17.5627 82.9433 16.9642C82.1842 16.3504 81.8046 15.2839 81.8046 13.7647V8.93095H80.0282V5.68542H81.8046V2.53197H85.3801V5.68542H87.9764V8.93095H85.3801Z" fill="black"/>
<path d="M93.1657 13.3964V17.8159H89.5902V1.51918H93.1657V10.1739H94.5549L97.1056 5.68542H101.205L97.5611 11.4629L101.501 17.8159H97.2878L94.646 13.3964H93.1657Z" fill="#3145FF"/>
<path d="M104.805 0C105.443 0 105.967 0.191816 106.377 0.575448C106.802 0.95908 107.014 1.48849 107.014 2.16368C107.014 2.86957 106.802 3.41432 106.377 3.79795C105.967 4.16624 105.443 4.35038 104.805 4.35038C104.198 4.35038 103.674 4.16624 103.234 3.79795C102.809 3.42967 102.596 2.88491 102.596 2.16368C102.596 1.48849 102.816 0.95908 103.256 0.575448C103.697 0.191816 104.213 0 104.805 0ZM106.604 17.8159H103.029V5.68542H106.604V17.8159Z" fill="#3145FF"/>
<path d="M112.87 7.02046C113.401 6.43734 113.978 6.03069 114.6 5.80051C115.223 5.57033 115.823 5.44757 116.4 5.43222C117.159 5.43222 117.819 5.56266 118.381 5.82353C118.958 6.06905 119.444 6.41432 119.839 6.85934C120.279 7.39642 120.582 8.02557 120.749 8.7468C120.916 9.46803 121 10.266 121 11.1407V17.8159H117.402V11.4399C117.402 11.1023 117.371 10.7724 117.311 10.4501C117.25 10.1279 117.136 9.83632 116.969 9.57545C116.802 9.31458 116.574 9.11509 116.286 8.97698C115.997 8.82353 115.64 8.7468 115.215 8.7468C114.76 8.76215 114.38 8.86189 114.077 9.04604C113.773 9.23018 113.538 9.46803 113.371 9.75959C113.204 10.0358 113.082 10.3427 113.006 10.6803C112.946 11.0179 112.915 11.3555 112.915 11.6931V17.8159H109.34V5.68542H112.687L112.87 7.02046Z" fill="#3145FF"/>
</svg>
